<?xml version="1.0" encoding="UTF-8" standalone="no"?><svg xmlns="http://www.w3.org/2000/svg" xmlns:xlink="http://www.w3.org/1999/xlink" contentScriptType="application/ecmascript" contentStyleType="text/css" height="1259px" preserveAspectRatio="none" style="width:939px;height:1259px;" version="1.1" viewBox="0 0 939 1259" width="939px" zoomAndPan="magnify"><defs><filter height="300%" id="fg1hmopwy4rvk" width="300%" x="-1" y="-1"><feGaussianBlur result="blurOut" stdDeviation="2.0"/><feColorMatrix in="blurOut" result="blurOut2" type="matrix" values="0 0 0 0 0 0 0 0 0 0 0 0 0 0 0 0 0 0 .4 0"/><feOffset dx="4.0" dy="4.0" in="blurOut2" result="blurOut3"/><feBlend in="SourceGraphic" in2="blurOut3" mode="normal"/></filter></defs><g><!--cluster SoftFIRE Middleware--><polygon fill="#FFFFFF" filter="url(#fg1hmopwy4rvk)" points="60,265,214,265,221,287.4883,932,287.4883,932,730,60,730,60,265" style="stroke: #000000; stroke-width: 2.0;"/><line style="stroke: #000000; stroke-width: 2.0;" x1="60" x2="221" y1="287.4883" y2="287.4883"/><text fill="#000000" font-family="sans-serif" font-size="14" font-weight="bold" lengthAdjust="spacingAndGlyphs" textLength="148" x="64" y="280.5352">SoftFIRE Middleware</text><!--cluster Federated Testbeds--><rect fill="#FFFFFF" filter="url(#fg1hmopwy4rvk)" height="98" style="stroke: #000000; stroke-width: 2.0;" width="716" x="14" y="1154"/><text fill="#000000" font-family="sans-serif" font-size="14" font-weight="bold" lengthAdjust="spacingAndGlyphs" textLength="141" x="301.5" y="1169.5352">Federated Testbeds</text><!--entity EM--><rect fill="#F8F8F8" filter="url(#fg1hmopwy4rvk)" height="62.9766" style="stroke: #383838; stroke-width: 1.5;" width="119" x="446.5" y="292"/><rect fill="#F8F8F8" height="10" style="stroke: #383838; stroke-width: 1.5;" width="15" x="545.5" y="297"/><rect fill="#F8F8F8" height="2" style="stroke: #383838; stroke-width: 1.5;" width="4" x="543.5" y="299"/><rect fill="#F8F8F8" height="2" style="stroke: #383838; stroke-width: 1.5;" width="4" x="543.5" y="303"/><text fill="#000000" font-family="sans-serif" font-size="14" lengthAdjust="spacingAndGlyphs" textLength="79" x="461.5" y="325.5352">Experiment</text><text fill="#000000" font-family="sans-serif" font-size="14" lengthAdjust="spacingAndGlyphs" textLength="60" x="461.5" y="342.0234">Manager</text><!--entity SdMa--><rect fill="#F8F8F8" filter="url(#fg1hmopwy4rvk)" height="46.4883" style="stroke: #383838; stroke-width: 1.5;" width="126" x="68" y="667.5"/><rect fill="#F8F8F8" height="10" style="stroke: #383838; stroke-width: 1.5;" width="15" x="174" y="672.5"/><rect fill="#F8F8F8" height="2" style="stroke: #383838; stroke-width: 1.5;" width="4" x="172" y="674.5"/><rect fill="#F8F8F8" height="2" style="stroke: #383838; stroke-width: 1.5;" width="4" x="172" y="678.5"/><text fill="#000000" font-family="sans-serif" font-size="14" lengthAdjust="spacingAndGlyphs" textLength="86" x="83" y="701.0352">SdnManager</text><!--entity SecMa--><rect fill="#F8F8F8" filter="url(#fg1hmopwy4rvk)" height="46.4883" style="stroke: #383838; stroke-width: 1.5;" width="154" x="229" y="667.5"/><rect fill="#F8F8F8" height="10" style="stroke: #383838; stroke-width: 1.5;" width="15" x="363" y="672.5"/><rect fill="#F8F8F8" height="2" style="stroke: #383838; stroke-width: 1.5;" width="4" x="361" y="674.5"/><rect fill="#F8F8F8" height="2" style="stroke: #383838; stroke-width: 1.5;" width="4" x="361" y="678.5"/><text fill="#000000" font-family="sans-serif" font-size="14" lengthAdjust="spacingAndGlyphs" textLength="114" x="244" y="701.0352">SecurityManager</text><!--entity MoMa--><rect fill="#F8F8F8" filter="url(#fg1hmopwy4rvk)" height="46.4883" style="stroke: #383838; stroke-width: 1.5;" width="176" x="418" y="667.5"/><rect fill="#F8F8F8" height="10" style="stroke: #383838; stroke-width: 1.5;" width="15" x="574" y="672.5"/><rect fill="#F8F8F8" height="2" style="stroke: #383838; stroke-width: 1.5;" width="4" x="572" y="674.5"/><rect fill="#F8F8F8" height="2" style="stroke: #383838; stroke-width: 1.5;" width="4" x="572" y="678.5"/><text fill="#000000" font-family="sans-serif" font-size="14" lengthAdjust="spacingAndGlyphs" textLength="136" x="433" y="701.0352">MonitoringManager</text><!--entity NfvMa--><rect fill="#F8F8F8" filter="url(#fg1hmopwy4rvk)" height="46.4883" style="stroke: #383838; stroke-width: 1.5;" width="122" x="629" y="667.5"/><rect fill="#F8F8F8" height="10" style="stroke: #383838; stroke-width: 1.5;" width="15" x="731" y="672.5"/><rect fill="#F8F8F8" height="2" style="stroke: #383838; stroke-width: 1.5;" width="4" x="729" y="674.5"/><rect fill="#F8F8F8" height="2" style="stroke: #383838; stroke-width: 1.5;" width="4" x="729" y="678.5"/><text fill="#000000" font-family="sans-serif" font-size="14" lengthAdjust="spacingAndGlyphs" textLength="82" x="644" y="701.0352">NfvManager</text><!--entity grpc--><ellipse cx="506" cy="507" fill="#F8F8F8" filter="url(#fg1hmopwy4rvk)" rx="8" ry="8" style="stroke: #383838; stroke-width: 2.0;"/><text fill="#000000" font-family="sans-serif" font-size="14" lengthAdjust="spacingAndGlyphs" textLength="36" x="488" y="537.5352">gRPC</text><!--entity PhyMa--><rect fill="#F8F8F8" filter="url(#fg1hmopwy4rvk)" height="62.9766" style="stroke: #383838; stroke-width: 1.5;" width="138" x="786" y="659"/><rect fill="#F8F8F8" height="10" style="stroke: #383838; stroke-width: 1.5;" width="15" x="904" y="664"/><rect fill="#F8F8F8" height="2" style="stroke: #383838; stroke-width: 1.5;" width="4" x="902" y="666"/><rect fill="#F8F8F8" height="2" style="stroke: #383838; stroke-width: 1.5;" width="4" x="902" y="670"/><text fill="#000000" font-family="sans-serif" font-size="14" lengthAdjust="spacingAndGlyphs" textLength="98" x="801" y="692.5352">PhysicalDevice</text><text fill="#000000" font-family="sans-serif" font-size="14" lengthAdjust="spacingAndGlyphs" textLength="60" x="801" y="709.0234">Manager</text><!--entity fokus--><rect fill="#F8F8F8" filter="url(#fg1hmopwy4rvk)" height="62.9766" style="stroke: #383838; stroke-width: 1.5;" width="112" x="22" y="1181"/><rect fill="#F8F8F8" height="10" style="stroke: #383838; stroke-width: 1.5;" width="15" x="114" y="1186"/><rect fill="#F8F8F8" height="2" style="stroke: #383838; stroke-width: 1.5;" width="4" x="112" y="1188"/><rect fill="#F8F8F8" height="2" style="stroke: #383838; stroke-width: 1.5;" width="4" x="112" y="1192"/><text fill="#000000" font-family="sans-serif" font-size="14" lengthAdjust="spacingAndGlyphs" textLength="41" x="37" y="1214.5352">Fokus</text><text fill="#000000" font-family="sans-serif" font-size="14" lengthAdjust="spacingAndGlyphs" textLength="72" x="37" y="1231.0234">Openstack</text><!--entity uos--><rect fill="#F8F8F8" filter="url(#fg1hmopwy4rvk)" height="62.9766" style="stroke: #383838; stroke-width: 1.5;" width="112" x="169" y="1181"/><rect fill="#F8F8F8" height="10" style="stroke: #383838; stroke-width: 1.5;" width="15" x="261" y="1186"/><rect fill="#F8F8F8" height="2" style="stroke: #383838; stroke-width: 1.5;" width="4" x="259" y="1188"/><rect fill="#F8F8F8" height="2" style="stroke: #383838; stroke-width: 1.5;" width="4" x="259" y="1192"/><text fill="#000000" font-family="sans-serif" font-size="14" lengthAdjust="spacingAndGlyphs" textLength="44" x="184" y="1214.5352">Surrey</text><text fill="#000000" font-family="sans-serif" font-size="14" lengthAdjust="spacingAndGlyphs" textLength="72" x="184" y="1231.0234">Openstack</text><!--entity er--><rect fill="#F8F8F8" filter="url(#fg1hmopwy4rvk)" height="62.9766" style="stroke: #383838; stroke-width: 1.5;" width="112" x="316" y="1181"/><rect fill="#F8F8F8" height="10" style="stroke: #383838; stroke-width: 1.5;" width="15" x="408" y="1186"/><rect fill="#F8F8F8" height="2" style="stroke: #383838; stroke-width: 1.5;" width="4" x="406" y="1188"/><rect fill="#F8F8F8" height="2" style="stroke: #383838; stroke-width: 1.5;" width="4" x="406" y="1192"/><text fill="#000000" font-family="sans-serif" font-size="14" lengthAdjust="spacingAndGlyphs" textLength="57" x="331" y="1214.5352">Ericsson</text><text fill="#000000" font-family="sans-serif" font-size="14" lengthAdjust="spacingAndGlyphs" textLength="72" x="331" y="1231.0234">Openstack</text><!--entity ads--><rect fill="#F8F8F8" filter="url(#fg1hmopwy4rvk)" height="62.9766" style="stroke: #383838; stroke-width: 1.5;" width="112" x="463" y="1181"/><rect fill="#F8F8F8" height="10" style="stroke: #383838; stroke-width: 1.5;" width="15" x="555" y="1186"/><rect fill="#F8F8F8" height="2" style="stroke: #383838; stroke-width: 1.5;" width="4" x="553" y="1188"/><rect fill="#F8F8F8" height="2" style="stroke: #383838; stroke-width: 1.5;" width="4" x="553" y="1192"/><text fill="#000000" font-family="sans-serif" font-size="14" lengthAdjust="spacingAndGlyphs" textLength="28" x="478" y="1214.5352">ADS</text><text fill="#000000" font-family="sans-serif" font-size="14" lengthAdjust="spacingAndGlyphs" textLength="72" x="478" y="1231.0234">Openstack</text><!--entity dt--><rect fill="#F8F8F8" filter="url(#fg1hmopwy4rvk)" height="62.9766" style="stroke: #383838; stroke-width: 1.5;" width="112" x="610" y="1181"/><rect fill="#F8F8F8" height="10" style="stroke: #383838; stroke-width: 1.5;" width="15" x="702" y="1186"/><rect fill="#F8F8F8" height="2" style="stroke: #383838; stroke-width: 1.5;" width="4" x="700" y="1188"/><rect fill="#F8F8F8" height="2" style="stroke: #383838; stroke-width: 1.5;" width="4" x="700" y="1192"/><text fill="#000000" font-family="sans-serif" font-size="14" lengthAdjust="spacingAndGlyphs" textLength="19" x="625" y="1214.5352">DT</text><text fill="#000000" font-family="sans-serif" font-size="14" lengthAdjust="spacingAndGlyphs" textLength="72" x="625" y="1231.0234">Openstack</text><!--entity U--><ellipse cx="506" cy="18" fill="#F8F8F8" filter="url(#fg1hmopwy4rvk)" rx="8" ry="8" style="stroke: #383838; stroke-width: 2.0;"/><path d="M506,26 L506,53 M493,34 L519,34 M506,53 L493,68 M506,53 L519,68 " fill="#F8F8F8" filter="url(#fg1hmopwy4rvk)" style="stroke: #383838; stroke-width: 2.0;"/><text fill="#000000" font-family="sans-serif" font-size="14" lengthAdjust="spacingAndGlyphs" textLength="93" x="459.5" y="88.5352">Experimenter</text><!--entity rest--><ellipse cx="506" cy="181" fill="#F8F8F8" filter="url(#fg1hmopwy4rvk)" rx="8" ry="8" style="stroke: #383838; stroke-width: 2.0;"/><text fill="#000000" font-family="sans-serif" font-size="14" lengthAdjust="spacingAndGlyphs" textLength="48" x="482" y="211.5352">TOSCA</text><!--entity napi--><ellipse cx="372" cy="812" fill="#F8F8F8" filter="url(#fg1hmopwy4rvk)" rx="8" ry="8" style="stroke: #383838; stroke-width: 2.0;"/><text fill="#000000" font-family="sans-serif" font-size="14" lengthAdjust="spacingAndGlyphs" textLength="53" x="345.5" y="842.5352">NFV API</text><!--entity vim--><ellipse cx="372" cy="1070" fill="#F8F8F8" filter="url(#fg1hmopwy4rvk)" rx="8" ry="8" style="stroke: #383838; stroke-width: 2.0;"/><text fill="#000000" font-family="sans-serif" font-size="14" lengthAdjust="spacingAndGlyphs" textLength="26" x="352" y="1100.5352">Vim</text><text fill="#000000" font-family="sans-serif" font-size="14" lengthAdjust="spacingAndGlyphs" textLength="40" x="352" y="1117.0234">driver</text><!--entity ob--><rect fill="#F8F8F8" filter="url(#fg1hmopwy4rvk)" height="46.4883" style="stroke: #383838; stroke-width: 1.5;" width="120" x="312" y="918"/><rect fill="#F8F8F8" height="10" style="stroke: #383838; stroke-width: 1.5;" width="15" x="412" y="923"/><rect fill="#F8F8F8" height="2" style="stroke: #383838; stroke-width: 1.5;" width="4" x="410" y="925"/><rect fill="#F8F8F8" height="2" style="stroke: #383838; stroke-width: 1.5;" width="4" x="410" y="929"/><text fill="#000000" font-family="sans-serif" font-size="14" lengthAdjust="spacingAndGlyphs" textLength="80" x="327" y="951.5352">Open Baton</text><!--link U to rest--><path d="M506,91.1074 C506,117.0199 506,148.742 506,166.7357 " fill="none" id="U-rest" style="stroke: #383838; stroke-width: 1.0; stroke-dasharray: 7.0,7.0;"/><polygon fill="#383838" points="506,171.8576,510,162.8576,506,166.8576,502,162.8576,506,171.8576" style="stroke: #383838; stroke-width: 1.0;"/><!--link rest to EM--><path d="M506,190.3498 C506,210.5973 506,259.294 506,291.8415 " fill="none" id="rest-EM" style="stroke: #383838; stroke-width: 1.0;"/><text fill="#000000" font-family="sans-serif" font-size="13" lengthAdjust="spacingAndGlyphs" textLength="52" x="507" y="253.5684">exposes</text><!--link EM to grpc--><path d="M506,355.0448 C506,397.8778 506,472.0536 506,497.8463 " fill="none" id="EM-grpc" style="stroke: #383838; stroke-width: 1.0;"/><!--link grpc to MoMa--><path d="M506,516.0998 C506,543.5804 506,626.3365 506,667.181 " fill="none" id="grpc-MoMa" style="stroke: #383838; stroke-width: 1.0;"/><!--link grpc to SdMa--><path d="M496.7303,511.536 C453.1382,532.8671 266.9492,623.9755 178.2921,667.3584 " fill="none" id="grpc-SdMa" style="stroke: #383838; stroke-width: 1.0;"/><!--link grpc to SecMa--><path d="M496.8867,515.3614 C467.7716,542.0746 376.2853,626.0132 331.3761,667.2174 " fill="none" id="grpc-SecMa" style="stroke: #383838; stroke-width: 1.0;"/><!--link grpc to NfvMa--><path d="M515.1246,516.0998 C542.6801,543.5804 625.6617,626.3365 666.6175,667.181 " fill="none" id="grpc-NfvMa" style="stroke: #383838; stroke-width: 1.0;"/><!--link grpc to PhyMa--><path d="M515.3349,511.9082 C554.6299,532.569 708.5482,613.4974 795.0838,658.9968 " fill="none" id="grpc-PhyMa" style="stroke: #383838; stroke-width: 1.0;"/><!--link NfvMa to napi--><path d="M647.1857,713.5303 C635.8895,719.2326 623.609,725.1055 612,730 C528.4705,765.217 424.073,796.8234 386.3931,807.8504 " fill="none" id="NfvMa-napi" style="stroke: #383838; stroke-width: 1.0;"/><polygon fill="#383838" points="381.3283,809.326,391.0879,810.6486,386.1287,807.9273,388.85,802.968,381.3283,809.326" style="stroke: #383838; stroke-width: 1.0;"/><!--link SecMa to napi--><path d="M318.5694,713.6392 C332.1425,738.626 353.3178,777.6078 364.4993,798.192 " fill="none" id="SecMa-napi" style="stroke: #383838; stroke-width: 1.0;"/><polygon fill="#383838" points="366.9868,802.7712,366.2057,792.9534,364.6001,798.3776,359.1759,796.772,366.9868,802.7712" style="stroke: #383838; stroke-width: 1.0;"/><!--link napi to ob--><path d="M372,821.2774 C372,841.266 372,888.9137 372,917.7091 " fill="none" id="napi-ob" style="stroke: #383838; stroke-width: 1.0;"/><text fill="#000000" font-family="sans-serif" font-size="13" lengthAdjust="spacingAndGlyphs" textLength="52" x="373" y="884.5684">exposes</text><!--link ob to vim--><path d="M372,964.0626 C372,992.9059 372,1040.921 372,1060.8727 " fill="none" id="ob-vim" style="stroke: #383838; stroke-width: 1.0;"/><!--link vim to fokus--><path d="M362.759,1072.4314 C331.6523,1080.839 228.4192,1110.5653 152,1154 C138.7589,1161.5259 125.3722,1171.3042 113.6933,1180.7052 " fill="none" id="vim-fokus" style="stroke: #383838; stroke-width: 1.0;"/><!--link vim to ads--><path d="M381.1955,1078.914 C401.812,1098.8994 452.5687,1148.1023 486.3873,1180.8857 " fill="none" id="vim-ads" style="stroke: #383838; stroke-width: 1.0;"/><!--link vim to dt--><path d="M381.295,1072.403 C412.5811,1080.7209 516.3895,1110.1967 593,1154 C606.2531,1161.5777 619.6158,1171.4779 631.2208,1180.9733 " fill="none" id="vim-dt" style="stroke: #383838; stroke-width: 1.0;"/><!--link vim to er--><path d="M372,1079.3498 C372,1099.5973 372,1148.294 372,1180.8415 " fill="none" id="vim-er" style="stroke: #383838; stroke-width: 1.0;"/><!--link vim to uos--><path d="M362.8045,1078.914 C342.188,1098.8994 291.4313,1148.1023 257.6127,1180.8857 " fill="none" id="vim-uos" style="stroke: #383838; stroke-width: 1.0;"/><!--
@startuml

skinparam monochrome true
skinparam componentStyle uml2

Actor Experimenter as U
() "TOSCA" as rest

() "NFV API" as napi
() "Vim\ndriver" as vim

package "SoftFIRE Middleware" {
  Component [Experiment\nManager] as EM
  Component SdnManager as SdMa
  Component SecurityManager as SecMa
  Component MonitoringManager as MoMa
  Component NfvManager as NfvMa
  () "gRPC" as grpc
  Component [PhysicalDevice\nManager] as PhyMa
}

Component [Open Baton] as ob

rectangle "Federated Testbeds" {
  Rectangle [Fokus\nOpenstack] as fokus
  Rectangle [Surrey\nOpenstack] as uos
  Rectangle [Ericsson\nOpenstack] as er
  Rectangle [ADS\nOpenstack] as ads
  Rectangle [DT\nOpenstack] as dt
}

U .down.> rest
EM -up- rest : exposes
EM -down- grpc

MoMa -up- grpc
SdMa -up- grpc
SecMa -up- grpc
NfvMa -up- grpc
PhyMa -up- grpc

NfvMa -down-> napi
SecMa -down-> napi
ob -up- napi : exposes
ob -down- vim
fokus -up- vim
ads -up- vim
dt -up- vim
er -up- vim
uos -up- vim

@enduml

PlantUML version 1.2017.13(Wed May 10 18:52:33 CEST 2017)
(GPL source distribution)
Java Runtime: Java(TM) SE Runtime Environment
JVM: Java HotSpot(TM) 64-Bit Server VM
Java Version: 1.7.0_67-b01
Operating System: Mac OS X
OS Version: 10.12.4
Default Encoding: UTF-8
Language: en
Country: US
--></g></svg>