<?xml version="1.0" encoding="UTF-8" standalone="no"?>
<!DOCTYPE svg PUBLIC "-//W3C//DTD SVG 1.1//EN" "http://www.w3.org/Graphics/SVG/1.1/DTD/svg11.dtd">
<!-- Generated by Microsoft Visio, SVG Export ue-reservation-engine.svg V2 -->
<svg xmlns="http://www.w3.org/2000/svg" xmlns:xlink="http://www.w3.org/1999/xlink" xmlns:ev="http://www.w3.org/2001/xml-events"
		width="7.27319in" height="13.9703in" viewBox="0 0 523.67 1005.86" xml:space="preserve" color-interpolation-filters="sRGB"
		class="st21">
	<style type="text/css">
	<![CDATA[
		.st1 {stroke:#000000;stroke-dasharray:5.25,3.75;stroke-linecap:round;stroke-linejoin:round;stroke-width:0.75}
		.st2 {marker-end:url(#mrkr5-19);stroke:#000000;stroke-linecap:round;stroke-linejoin:round;stroke-width:0.75}
		.st3 {fill:#000000;fill-opacity:1;stroke:#000000;stroke-opacity:1;stroke-width:0.18796992481203}
		.st4 {fill:#000000;font-family:Arial;font-size:0.75em;font-weight:bold}
		.st5 {font-size:1em;text-decoration:underline}
		.st6 {font-size:1em;font-weight:normal}
		.st7 {visibility:visible}
		.st8 {fill:#000000;fill-opacity:0.4;filter:url(#filter_2.6666667461395);stroke:#000000;stroke-linecap:round;stroke-linejoin:round;stroke-opacity:0.4}
		.st9 {fill:#f8f8f8;stroke:#000000;stroke-linecap:round;stroke-linejoin:round;stroke-width:1}
		.st10 {fill:#000000;font-family:Arial;font-size:0.833336em}
		.st11 {font-size:1em}
		.st12 {fill:#ffffff;fill-opacity:0;stroke:#000000;stroke-linecap:round;stroke-linejoin:round;stroke-width:0.75}
		.st13 {fill:#ffffff;stroke:#000000;stroke-linecap:round;stroke-linejoin:round;stroke-width:0.75}
		.st14 {fill:#000000;font-family:Calibri;font-size:0.833336em;font-weight:bold}
		.st15 {marker-start:url(#mrkr5-103);stroke:#000000;stroke-linecap:round;stroke-linejoin:round;stroke-width:0.75}
		.st16 {stroke:#000000;stroke-dasharray:0,3.75;stroke-linecap:round;stroke-linejoin:round;stroke-width:1.25}
		.st17 {marker-end:url(#mrkr5-141);stroke:#000000;stroke-linecap:round;stroke-linejoin:round;stroke-width:0.75}
		.st18 {fill:#000000;fill-opacity:1;stroke:#000000;stroke-opacity:1;stroke-width:0.22935779816514}
		.st19 {fill:none;stroke:none;stroke-linecap:round;stroke-linejoin:round;stroke-width:0.75}
		.st20 {font-size:0.944458em;font-weight:normal}
		.st21 {fill:none;fill-rule:evenodd;font-size:12px;overflow:visible;stroke-linecap:square;stroke-miterlimit:3}
	]]>
	</style>

	<defs id="Markers">
		<g id="lend5">
			<path d="M 2 1 L 0 0 L 1.98117 -0.993387 C 1.67173 -0.364515 1.67301 0.372641 1.98465 1.00043 " style="stroke:none"/>
		</g>
		<marker id="mrkr5-19" class="st3" refX="-9.31" orient="auto" markerUnits="strokeWidth" overflow="visible">
			<use xlink:href="#lend5" transform="scale(-5.32,-5.32) "/>
		</marker>
		<marker id="mrkr5-103" class="st3" refX="8.83" orient="auto" markerUnits="strokeWidth" overflow="visible">
			<use xlink:href="#lend5" transform="scale(5.32) "/>
		</marker>
		<marker id="mrkr5-141" class="st18" refX="-7.63" orient="auto" markerUnits="strokeWidth" overflow="visible">
			<use xlink:href="#lend5" transform="scale(-4.36,-4.36) "/>
		</marker>
	</defs>
	<defs id="Filters">
		<filter id="filter_2.6666667461395">
			<feGaussianBlur stdDeviation="2.6666667461395"/>
		</filter>
	</defs>
	<g>
		<title>V2</title>
		<g id="shape4-1" transform="translate(1130.74,40.2212) rotate(90)">
			<title>Sheet.4</title>
			<path d="M0 1005.86 L915.51 1005.86" class="st1"/>
		</g>
		<g id="shape5-4" transform="translate(1246.96,40.2212) rotate(90)">
			<title>Sheet.5</title>
			<path d="M0 1005.86 L915.51 1005.86" class="st1"/>
		</g>
		<g id="shape6-7" transform="translate(1366.02,40.2212) rotate(90)">
			<title>Sheet.6</title>
			<path d="M0 1005.86 L915.51 1005.86" class="st1"/>
		</g>
		<g id="shape8-10" transform="translate(1470.9,40.2212) rotate(90)">
			<title>Sheet.8</title>
			<path d="M0 1005.86 L915.51 1005.86" class="st1"/>
		</g>
		<g id="shape34-13" transform="translate(27.0801,-809.738)">
			<title>Sheet.34</title>
			<desc>(3) Deploy Experiment</desc>
			<path d="M0 1005.86 L90.81 1005.86" class="st2"/>
			<text x="10" y="991.16" class="st4">(<tspan class="st5">3</tspan>)<tspan class="st6"> </tspan><tspan class="st6">Deploy  </tspan><tspan
						x="10" dy="1.2em" class="st6">     </tspan><tspan class="st6">Experiment</tspan></text>		</g>
		<g id="shape44-26" transform="translate(90.8596,-24.6213)">
			<title>Sheet.44</title>
			<desc>Experiment Manager</desc>
			<g id="shadow44-27" transform="matrix(1,0,0,1,2.12132,2.12132)" class="st7">
				<rect x="0" y="971.849" width="68.0315" height="34.0157" class="st8"/>
			</g>
			<rect x="0" y="971.849" width="68.0315" height="34.0157" class="st9"/>
			<text x="8.73" y="985.86" class="st10">Experiment <tspan x="14.28" dy="1.2em" class="st11">Manager</tspan></text>		</g>
		<g id="shape45-33" transform="translate(192.907,-24.6213)">
			<title>Sheet.45</title>
			<desc>Physical Device Manager</desc>
			<g id="shadow45-34" transform="matrix(1,0,0,1,2.12132,2.12132)" class="st7">
				<rect x="0" y="971.849" width="96.378" height="34.0157" class="st8"/>
			</g>
			<rect x="0" y="971.849" width="96.378" height="34.0157" class="st9"/>
			<text x="12.9" y="985.86" class="st10">Physical Device <tspan x="28.46" dy="1.2em" class="st11">Manager</tspan></text>		</g>
		<g id="shape47-40" transform="translate(431.017,-24.6213)">
			<title>Sheet.47</title>
			<desc>TeamViewer</desc>
			<g id="shadow47-41" transform="matrix(1,0,0,1,2.12132,2.12132)" class="st7">
				<rect x="0" y="971.849" width="68.0315" height="34.0157" class="st8"/>
			</g>
			<rect x="0" y="971.849" width="68.0315" height="34.0157" class="st9"/>
			<text x="5.95" y="991.86" class="st10">TeamViewer</text>		</g>
		<g id="shape1-46" transform="translate(90.8596,-951.47)">
			<title>Sheet.1</title>
			<desc>Experiment Manager</desc>
			<g id="shadow1-47" transform="matrix(1,0,0,1,2.12132,2.12132)" class="st7">
				<rect x="0" y="971.849" width="68.0315" height="34.0157" class="st8"/>
			</g>
			<rect x="0" y="971.849" width="68.0315" height="34.0157" class="st9"/>
			<text x="8.73" y="985.86" class="st10">Experiment <tspan x="14.28" dy="1.2em" class="st11">Manager</tspan></text>		</g>
		<g id="shape2-53" transform="translate(192.907,-951.47)">
			<title>Sheet.2</title>
			<desc>Physical Device Manager</desc>
			<g id="shadow2-54" transform="matrix(1,0,0,1,2.12132,2.12132)" class="st7">
				<rect x="0" y="971.849" width="96.378" height="34.0157" class="st8"/>
			</g>
			<rect x="0" y="971.849" width="96.378" height="34.0157" class="st9"/>
			<text x="12.9" y="985.86" class="st10">Physical Device <tspan x="28.46" dy="1.2em" class="st11">Manager</tspan></text>		</g>
		<g id="shape3-60" transform="translate(318.973,-951.47)">
			<title>Sheet.3</title>
			<desc>UE Reservation Engine</desc>
			<g id="shadow3-61" transform="matrix(1,0,0,1,2.12132,2.12132)" class="st7">
				<rect x="0" y="971.849" width="82.0538" height="34.0157" class="st8"/>
			</g>
			<rect x="0" y="971.849" width="82.0538" height="34.0157" class="st9"/>
			<text x="6.01" y="985.86" class="st10">UE Reservation <tspan x="25.46" dy="1.2em" class="st11">Engine</tspan></text>		</g>
		<g id="shape7-67" transform="translate(431.017,-951.47)">
			<title>Sheet.7</title>
			<desc>TeamViewer</desc>
			<g id="shadow7-68" transform="matrix(1,0,0,1,2.12132,2.12132)" class="st7">
				<rect x="0" y="971.849" width="68.0315" height="34.0157" class="st8"/>
			</g>
			<rect x="0" y="971.849" width="68.0315" height="34.0157" class="st9"/>
			<text x="5.95" y="991.86" class="st10">TeamViewer</text>		</g>
		<g id="group48-73" transform="translate(19.8353,-390.291)">
			<title>Optional fragment</title>
			<g id="shape48-74">
				<rect x="0" y="478.701" width="479.055" height="527.164" class="st12"/>
			</g>
			<g id="shape49-76" transform="translate(0,-507.16)">
				<title>Sheet.49</title>
				<desc>UE Reservation</desc>
				<path d="M0 1005.86 L72.91 1005.86 L80 998.78 L80 985.86 L0 985.86 L0 1005.86 Z" class="st13"/>
				<text x="4" y="998.86" class="st14">UE Reservation</text>			</g>
		</g>
		<g id="shape63-79" transform="translate(27.0801,-874.935)">
			<title>Sheet.63</title>
			<desc>(1) Reserve UE</desc>
			<path d="M0 1005.86 L90.81 1005.86" class="st2"/>
			<text x="10" y="1002.56" class="st4">(<tspan class="st5">1</tspan>)<tspan class="st6"> </tspan><tspan class="st6">Reserve UE</tspan></text>		</g>
		<g id="shape64-88" transform="translate(124.875,-857.927)">
			<title>Sheet.64</title>
			<desc>(2) Validate Resource</desc>
			<path d="M0 1005.86 L109.24 1005.86" class="st2"/>
			<text x="10" y="1002.56" class="st4">(<tspan class="st5">2</tspan>)<tspan class="st6"> </tspan><tspan class="st6">Validate Resource</tspan></text>		</g>
		<g id="shape65-97" transform="translate(364.403,-668.006)">
			<title>Sheet.65</title>
			<desc>(9) Return</desc>
			<path d="M6.62 1005.86 L6.98 1005.86 L100.63 1005.86" class="st15"/>
			<text x="10" y="1002.56" class="st4">(<tspan class="st5">9</tspan>)<tspan class="st6"> </tspan><tspan class="st6">Return</tspan></text>		</g>
		<g id="shape66-108" transform="translate(1188.69,174.867) rotate(90)">
			<title>Sheet.66</title>
			<path d="M0 1005.86 L10.44 1005.86" class="st16"/>
		</g>
		<g id="shape69-111" transform="translate(124.875,-792.73)">
			<title>Sheet.69</title>
			<desc>(4) Reserve UE 1</desc>
			<path d="M0 1005.86 L109.24 1005.86" class="st2"/>
			<text x="10" y="1002.56" class="st4">(<tspan class="st5">4</tspan>)<tspan class="st6"> </tspan><tspan class="st6">Reserve UE </tspan><tspan
						class="st6">1</tspan></text>		</g>
		<g id="shape70-121" transform="translate(241.096,-775.722)">
			<title>Sheet.70</title>
			<desc>(5) Reserve UE</desc>
			<path d="M0 1005.86 L107.82 1005.86" class="st2"/>
			<text x="10" y="1002.56" class="st4">(<tspan class="st5">5</tspan>)<tspan class="st6"> </tspan><tspan class="st6">Reserve UE</tspan></text>		</g>
		<g id="shape71-130" transform="translate(355.899,-605.643)">
			<title>Sheet.71</title>
			<g id="shadow71-131" transform="matrix(1,0,0,1,2.12132,2.12132)" class="st7">
				<rect x="0" y="835.786" width="8.50394" height="170.079" class="st8"/>
			</g>
			<rect x="0" y="835.786" width="8.50394" height="170.079" class="st13"/>
		</g>
		<g id="shape72-135" transform="translate(365.662,-754.462)">
			<title>Sheet.72</title>
			<path d="M0 997.36 L22.68 997.36 L22.68 1005.86 L5.72 1005.86" class="st17"/>
		</g>
		<g id="shape73-142" transform="translate(364.528,-757.297)">
			<title>Sheet.73</title>
			<desc>(6) Assign TeamViewer Account</desc>
			<rect x="0" y="971.849" width="103.465" height="34.0157" class="st19"/>
			<text x="10" y="986.16" class="st4">(<tspan class="st5">6</tspan>)<tspan class="st6"> </tspan><tspan class="st6">Assign </tspan><tspan
						x="10" dy="1.2em" class="st6">TeamViewer Account</tspan></text>		</g>
		<g id="shape74-149" transform="translate(365.662,-716.195)">
			<title>Sheet.74</title>
			<path d="M0 997.36 L22.68 997.36 L22.68 1005.86 L5.72 1005.86" class="st17"/>
		</g>
		<g id="shape76-154" transform="translate(364.386,-719.029)">
			<title>Sheet.76</title>
			<desc>(7) Generate Random Password</desc>
			<rect x="0" y="971.849" width="103.465" height="34.0157" class="st19"/>
			<text x="10" y="986.16" class="st4">(<tspan class="st5">7</tspan>)<tspan class="st6"> </tspan><tspan class="st6">Generate  </tspan><tspan
						x="10" dy="1.2em" class="st6">Random Password</tspan></text>		</g>
		<g id="shape77-161" transform="translate(364.403,-685.014)">
			<title>Sheet.77</title>
			<desc>(8) Set TeamViewer Account Password</desc>
			<path d="M0 1005.86 L93.65 1005.86" class="st2"/>
			<text x="10" y="991.76" class="st4">(<tspan class="st5">8</tspan>)<tspan class="st6"> </tspan><tspan class="st6">Set TeamViewer </tspan><tspan
						x="10" dy="1.2em" class="st6">Account Password</tspan></text>		</g>
		<g id="shape79-171" transform="translate(241.096,-451.235)">
			<title>Sheet.79</title>
			<desc>(18) Return</desc>
			<path d="M6.62 1005.86 L6.98 1005.86 L114.8 1005.86" class="st15"/>
			<text x="10" y="1002.56" class="st4">(<tspan class="st5">18</tspan>)<tspan class="st6"> </tspan><tspan class="st6">Return</tspan></text>		</g>
		<g id="shape80-180" transform="translate(124.875,-434.228)">
			<title>Sheet.80</title>
			<desc>(19) Return</desc>
			<path d="M6.62 1005.86 L6.98 1005.86 L116.22 1005.86" class="st15"/>
			<text x="10" y="1002.56" class="st4">(<tspan class="st5">19</tspan>)<tspan class="st6"> </tspan><tspan class="st6">Return</tspan></text>		</g>
		<g id="shape81-189" transform="translate(26.9219,-412.968)">
			<title>Sheet.81</title>
			<desc>(20) Return</desc>
			<path d="M6.62 1005.86 L6.98 1005.86 L97.95 1005.86" class="st15"/>
			<text x="10" y="1002.56" class="st4">(<tspan class="st5">20</tspan>)<tspan class="st6"> </tspan><tspan class="st6">Return</tspan></text>		</g>
		<g id="shape83-198" transform="translate(124.875,-534.404)">
			<title>Sheet.83</title>
			<desc>(14) Reserve UE N</desc>
			<path d="M0 1005.86 L109.24 1005.86" class="st2"/>
			<text x="10" y="1002.56" class="st4">(<tspan class="st5">14</tspan>)<tspan class="st6"> </tspan><tspan class="st6">Reserve UE N</tspan></text>		</g>
		<g id="shape85-207" transform="translate(27.0801,-322.259)">
			<title>Sheet.85</title>
			<desc>(21) Stop Experiment</desc>
			<path d="M0 1005.86 L90.81 1005.86" class="st2"/>
			<text x="10" y="1002.86" class="st4">(<tspan class="st5">21</tspan>) <tspan class="st20">Stop Experiment</tspan></text>		</g>
		<g id="group86-215" transform="translate(19.8353,-89.8182)">
			<title>Optional fragment.86</title>
			<g id="shape86-216">
				<rect x="0" y="730.904" width="479.055" height="274.961" class="st12"/>
			</g>
			<g id="shape87-218" transform="translate(0,-254.957)">
				<title>Sheet.87</title>
				<desc>UE Termination</desc>
				<path d="M0 1005.86 L72.91 1005.86 L80 998.78 L80 985.86 L0 985.86 L0 1005.86 Z" class="st13"/>
				<text x="4" y="998.86" class="st14">UE Termination</text>			</g>
		</g>
		<g id="shape92-221" transform="translate(124.875,-305.251)">
			<title>Sheet.92</title>
			<desc>(22) Unreserve UE 1</desc>
			<path d="M0 1005.86 L109.24 1005.86" class="st2"/>
			<text x="10" y="1002.56" class="st4">(<tspan class="st5">22</tspan>)<tspan class="st6"> </tspan><tspan class="st6">Unreserve UE </tspan><tspan
						class="st6">1</tspan></text>		</g>
		<g id="shape93-231" transform="translate(241.096,-288.243)">
			<title>Sheet.93</title>
			<desc>(23) Unreserve UE 1</desc>
			<path d="M0 1005.86 L107.82 1005.86" class="st2"/>
			<text x="10" y="1002.56" class="st4">(<tspan class="st5">23</tspan>)<tspan class="st6"> </tspan><tspan class="st6">Unreserve UE </tspan><tspan
						class="st6">1</tspan></text>		</g>
		<g id="shape94-241" transform="translate(355.899,-237.503)">
			<title>Sheet.94</title>
			<g id="shadow94-242" transform="matrix(1,0,0,1,2.12132,2.12132)" class="st7">
				<rect x="0" y="955.124" width="8.50394" height="50.7402" class="st8"/>
			</g>
			<rect x="0" y="955.124" width="8.50394" height="50.7402" class="st13"/>
		</g>
		<g id="shape100-246" transform="translate(241.096,-237.22)">
			<title>Sheet.100</title>
			<desc>(26) Return</desc>
			<path d="M6.62 1005.86 L6.98 1005.86 L114.8 1005.86" class="st15"/>
			<text x="10" y="1002.56" class="st4">(<tspan class="st5">26</tspan>)<tspan class="st6"> </tspan><tspan class="st6">Return</tspan></text>		</g>
		<g id="shape101-255" transform="translate(124.875,-128.086)">
			<title>Sheet.101</title>
			<desc>(33) Return</desc>
			<path d="M6.62 1005.86 L6.98 1005.86 L116.22 1005.86" class="st15"/>
			<text x="10" y="1002.56" class="st4">(<tspan class="st5">33</tspan>)<tspan class="st6"> </tspan><tspan class="st6">Return</tspan></text>		</g>
		<g id="shape102-264" transform="translate(26.9219,-112.495)">
			<title>Sheet.102</title>
			<desc>(34) Return</desc>
			<path d="M6.62 1005.86 L6.98 1005.86 L97.95 1005.86" class="st15"/>
			<text x="10" y="1002.56" class="st4">(<tspan class="st5">34</tspan>)<tspan class="st6"> </tspan><tspan class="st6">Return</tspan></text>		</g>
		<g id="shape105-273" transform="translate(364.403,-254.228)">
			<title>Sheet.105</title>
			<desc>(25) Return</desc>
			<path d="M6.62 1005.86 L6.98 1005.86 L100.63 1005.86" class="st15"/>
			<text x="10" y="1002.56" class="st4">(<tspan class="st5">25</tspan>)<tspan class="st6"> </tspan><tspan class="st6">Return</tspan></text>		</g>
		<g id="shape106-282" transform="translate(364.403,-271.235)">
			<title>Sheet.106</title>
			<desc>(24) Remove UE from TeamViewer Account</desc>
			<path d="M0 1005.86 L93.65 1005.86" class="st2"/>
			<text x="10" y="992.06" class="st4">(<tspan class="st5">24</tspan>)<tspan class="st6"> </tspan><tspan class="st20">Remove UE from </tspan><tspan
						x="10" dy="1.218em" class="st20">TeamViewer Account</tspan></text>		</g>
		<g id="shape107-292" transform="translate(124.875,-220.212)">
			<title>Sheet.107</title>
			<desc>(27) Return</desc>
			<path d="M6.62 1005.86 L6.98 1005.86 L116.22 1005.86" class="st15"/>
			<text x="10" y="1002.56" class="st4">(<tspan class="st5">27</tspan>)<tspan class="st6"> </tspan><tspan class="st6">Return</tspan></text>		</g>
		<g id="shape108-301" transform="translate(124.875,-170.606)">
			<title>Sheet.108</title>
			<desc>(28) Unreserve UE N</desc>
			<path d="M0 1005.86 L109.24 1005.86" class="st2"/>
			<text x="10" y="1002.56" class="st4">(<tspan class="st5">28</tspan>)<tspan class="st6"> </tspan><tspan class="st6">Unreserve UE N</tspan></text>		</g>
		<g id="shape109-310" transform="translate(291.961,-147.928)">
			<title>Sheet.109</title>
			<path d="M0 1005.86 L22.68 1005.86" class="st16"/>
		</g>
		<g id="shape110-313" transform="translate(364.403,-469.661)">
			<title>Sheet.110</title>
			<desc>(17) Return</desc>
			<path d="M6.62 1005.86 L6.98 1005.86 L100.63 1005.86" class="st15"/>
			<text x="10" y="1002.56" class="st4">(<tspan class="st5">17</tspan>)<tspan class="st6"> </tspan><tspan class="st6">Return</tspan></text>		</g>
		<g id="shape111-322" transform="translate(364.403,-486.669)">
			<title>Sheet.111</title>
			<desc>(16) Add UE to TeamViewer Account</desc>
			<path d="M0 1005.86 L93.65 1005.86" class="st2"/>
			<text x="10" y="991.76" class="st4">(<tspan class="st5">16</tspan>)<tspan class="st6"> </tspan><tspan class="st6">Add UE to </tspan><tspan
						x="10" dy="1.2em" class="st6">TeamViewer Account</tspan></text>		</g>
		<g id="shape115-332" transform="translate(240.181,-514.91) rotate(-0.0521209)">
			<title>Sheet.115</title>
			<desc>(15) Reserve UE</desc>
			<path d="M0 1005.86 L107.82 1005.86" class="st2"/>
			<text x="10" y="1002.56" class="st4">(<tspan class="st5">15</tspan>)<tspan class="st6"> </tspan><tspan class="st6">Reserve UE</tspan></text>		</g>
		<g id="shape116-341" transform="translate(355.899,-450.952)">
			<title>Sheet.116</title>
			<g id="shadow116-342" transform="matrix(1,0,0,1,2.12132,2.12132)" class="st7">
				<rect x="0" y="941.802" width="8.50394" height="64.063" class="st8"/>
			</g>
			<rect x="0" y="941.802" width="8.50394" height="64.063" class="st13"/>
		</g>
		<g id="shape117-346" transform="translate(241.096,-605.684)">
			<title>Sheet.117</title>
			<desc>(12) Return</desc>
			<path d="M6.62 1005.86 L6.98 1005.86 L114.8 1005.86" class="st15"/>
			<text x="10" y="1002.56" class="st4">(<tspan class="st5">12</tspan>)<tspan class="st6"> </tspan><tspan class="st6">Return</tspan></text>		</g>
		<g id="shape118-355" transform="translate(124.875,-588.676)">
			<title>Sheet.118</title>
			<desc>(13) Return</desc>
			<path d="M6.62 1005.86 L6.98 1005.86 L116.22 1005.86" class="st15"/>
			<text x="10" y="1002.56" class="st4">(<tspan class="st5">13</tspan>)<tspan class="st6"> </tspan><tspan class="st6">Return</tspan></text>		</g>
		<g id="shape119-364" transform="translate(364.403,-621.558)">
			<title>Sheet.119</title>
			<desc>(11) Return</desc>
			<path d="M6.62 1005.86 L6.98 1005.86 L100.63 1005.86" class="st15"/>
			<text x="10" y="1002.56" class="st4">(<tspan class="st5">11</tspan>)<tspan class="st6"> </tspan><tspan class="st6">Return</tspan></text>		</g>
		<g id="shape120-373" transform="translate(364.403,-638.565)">
			<title>Sheet.120</title>
			<desc>(10) Add UE to TeamViewer Account</desc>
			<path d="M0 1005.86 L93.65 1005.86" class="st2"/>
			<text x="10" y="991.76" class="st4">(<tspan class="st5">10</tspan>)<tspan class="st6"> </tspan><tspan class="st6">Add UE to </tspan><tspan
						x="10" dy="1.2em" class="st6">TeamViewer Account</tspan></text>		</g>
		<g id="shape121-383" transform="translate(1187.28,434.157) rotate(90)">
			<title>Sheet.121</title>
			<path d="M0 1005.86 L11.91 1005.86" class="st16"/>
		</g>
		<g id="shape122-386" transform="translate(1187.28,802.661) rotate(90)">
			<title>Sheet.122</title>
			<path d="M0 1005.86 L11.91 1005.86" class="st16"/>
		</g>
		<g id="shape124-389" transform="translate(318.973,-24.378)">
			<title>Sheet.124</title>
			<desc>UE Reservation Engine</desc>
			<g id="shadow124-390" transform="matrix(1,0,0,1,2.12132,2.12132)" class="st7">
				<rect x="0" y="971.849" width="82.0538" height="34.0157" class="st8"/>
			</g>
			<rect x="0" y="971.849" width="82.0538" height="34.0157" class="st9"/>
			<text x="6.01" y="985.86" class="st10">UE Reservation <tspan x="25.46" dy="1.2em" class="st11">Engine</tspan></text>		</g>
	</g>
</svg>
